<svg xmlns="http://www.w3.org/2000/svg" version="1.1" xmlns:xlink="http://www.w3.org/1999/xlink" xmlns:svgjs="http://svgjs.com/svgjs" width="1440" height="1500" preserveAspectRatio="none" viewBox="0 0 1440 1500"><g mask="url(&quot;#SvgjsMask1001&quot;)" fill="none"><rect width="1440" height="1500" x="0" y="0" fill="#0e2a47"></rect><path d="M1308.46,1890.373C1424.484,1885.417,1524.604,1817.23,1583.507,1717.147C1643.37,1615.433,1665.545,1488.436,1604.443,1387.462C1545.026,1289.273,1423.116,1267.664,1308.46,1262.616C1180.635,1256.988,1034.439,1252.694,963.61,1359.25C887.636,1473.545,914.721,1627.417,989.458,1742.524C1057.863,1847.879,1182.96,1895.734,1308.46,1890.373" fill="rgba(28, 83, 142, 0.4)" class="triangle-float2"></path><path d="M1411.0077873691305 792.1484201191149L1403.9900910529161 390.1048674268711 1001.9465383606723 397.1225637430855 1008.9642346768867 799.1661164353293z" fill="rgba(28, 83, 142, 0.4)" class="triangle-float3"></path><path d="M-91.20068089302598 937.2607251889328L-96.5431311107814 1243.3294931783835 209.52563687866913 1248.6719433961389 214.86808709642455 942.6031754066883z" fill="rgba(28, 83, 142, 0.4)" class="triangle-float2"></path><path d="M629.449,960.08C770.269,960.324,893.7,876.943,967.141,756.79C1044.269,630.606,1080.822,471.982,1005.63,344.635C931.39,218.901,775.162,175.465,629.449,184.864C500.053,193.211,394.613,276.52,328.88,388.289C262.048,501.927,232.436,638.929,293.778,755.623C359.114,879.916,489.03,959.837,629.449,960.08" fill="rgba(28, 83, 142, 0.4)" class="triangle-float2"></path><path d="M1315.666,1579.409C1392.095,1581.566,1461.635,1535.561,1498.866,1468.779C1535.147,1403.701,1530.827,1324.819,1493.57,1260.295C1456.316,1195.775,1390.102,1154.648,1315.666,1151.496C1235.036,1148.082,1147.969,1173.038,1109.603,1244.037C1072.482,1312.733,1108.666,1392.389,1149.544,1458.918C1187.926,1521.386,1242.378,1577.34,1315.666,1579.409" fill="rgba(28, 83, 142, 0.4)" class="triangle-float2"></path><path d="M1513.776587336931 146.76491435479784L1148.3973870859595-129.1143997251977 1092.6977603955263 267.20903757601445z" fill="rgba(28, 83, 142, 0.4)" class="triangle-float2"></path><path d="M626.5179864844222 1049.6113041663496L1017.6515751649016 907.2503202649348 875.2905912634868 516.1167315844554 484.1570025830074 658.4777154858701z" fill="rgba(28, 83, 142, 0.4)" class="triangle-float3"></path><path d="M715.278,120.723C757.763,118.175,779.635,74.895,801.194,38.198C823.197,0.744,854.454,-41.6,832.743,-79.224C811.029,-116.854,758.596,-114.022,715.278,-110.691C679.09,-107.908,645.417,-93.574,625.427,-63.28C602.975,-29.254,591.554,13.067,609.442,49.699C629.423,90.617,669.824,123.449,715.278,120.723" fill="rgba(28, 83, 142, 0.4)" class="triangle-float3"></path><path d="M1472.97,1699.898C1592.963,1690.403,1696.384,1626.849,1761.181,1525.41C1832.331,1414.024,1875.109,1279.01,1817.945,1159.84C1753.425,1025.333,1622.127,927.231,1472.97,924.571C1319.659,921.837,1183.026,1014.558,1106.002,1147.143C1028.597,1280.384,1007.985,1449.886,1093.213,1578.264C1172.009,1696.952,1330.951,1711.135,1472.97,1699.898" fill="rgba(28, 83, 142, 0.4)" class="triangle-float2"></path><path d="M126.29 1351.33 a388.64 388.64 0 1 0 777.28 0 a388.64 388.64 0 1 0 -777.28 0z" fill="rgba(28, 83, 142, 0.4)" class="triangle-float2"></path><path d="M968.7784345716682 1283.0090139169754L1283.7257632425171 1333.199497850115 1188.374814265122 1071.2249186111524z" fill="rgba(28, 83, 142, 0.4)" class="triangle-float3"></path><path d="M579.7132027240425 441.5200312101626L497.7409957416718 216.30324350323872 200.90191767247137 451.86994783025665z" fill="rgba(28, 83, 142, 0.4)" class="triangle-float1"></path></g><defs><mask id="SvgjsMask1001"><rect width="1440" height="1500" fill="#ffffff"></rect></mask><style>
            @keyframes float1 {
                0%{transform: translate(0, 0)}
                50%{transform: translate(-10px, 0)}
                100%{transform: translate(0, 0)}
            }

            .triangle-float1 {
                animation: float1 5s infinite;
            }

            @keyframes float2 {
                0%{transform: translate(0, 0)}
                50%{transform: translate(-5px, -5px)}
                100%{transform: translate(0, 0)}
            }

            .triangle-float2 {
                animation: float2 4s infinite;
            }

            @keyframes float3 {
                0%{transform: translate(0, 0)}
                50%{transform: translate(0, -10px)}
                100%{transform: translate(0, 0)}
            }

            .triangle-float3 {
                animation: float3 6s infinite;
            }
        </style></defs></svg>